# xmcd CD database file
#
# Track frame offsets:
#	150
#	18624
#	33020
#	44287
#	70936
#	99349
#	126803
#	146423
#	170450
#	196339
#	224399
#	237672
#	261270
#
# Disc length: 3782 seconds
#
# Revision: 0
# Processed by: cddbd v1.5PL3 Copyright (c) Steve Scherf et al.
# Submitted via: CDex 1.51
#
DISCID=b90ec40d
DTITLE=Szakcsi Lakatos Béla - Virágom, virágom
DYEAR=1998
DGENRE=Jazz
TTITLE0=Tavaszi szél 1
TTITLE1=Tavaszi szél 2
TTITLE2=Tavaszi szél 3
TTITLE3=Arass, rózsám, arass
TTITLE4=Hojeda, hojeda
TTITLE5=Indulj el egy úton
TTITLE6=Hej, révész, révész
TTITLE7=Magos kõsziklának
TTITLE8=Repülj, madár, repülj
TTITLE9=Bodor Katalin balladája
TTITLE10=Márton Szép Ilona
TTITLE11=Szerelem, szerelem
TTITLE12=Virágok vetélkedése
EXTD=YEAR: 1998
EXTT0=
EXTT1=
EXTT2=
EXTT3=
EXTT4=
EXTT5=
EXTT6=
EXTT7=
EXTT8=
EXTT9=
EXTT10=
EXTT11=
EXTT12=
PLAYORDER=
